<svg width="288" height="24" viewBox="0 0 288 24" fill="none" xmlns="http://www.w3.org/2000/svg">
<rect width="24" height="24" rx="12" fill="#087F5B"/>
<path d="M10.2979 16.3359C10.5029 16.541 10.8516 16.541 11.0566 16.3359L17.0859 10.3066C17.291 10.1016 17.291 9.75293 17.0859 9.54785L16.3477 8.80957C16.1426 8.60449 15.8145 8.60449 15.6094 8.80957L10.6875 13.7314L8.37012 11.4346C8.16504 11.2295 7.83691 11.2295 7.63184 11.4346L6.89355 12.1729C6.68848 12.3779 6.68848 12.7266 6.89355 12.9316L10.2979 16.3359Z" fill="#FCFEFF"/>
<path d="M40.72 18.192C39.7813 18.192 38.9813 18.0213 38.32 17.68C37.6693 17.3387 37.1093 16.88 36.64 16.304L37.888 15.136C38.2827 15.616 38.7147 15.9787 39.184 16.224C39.664 16.4693 40.208 16.592 40.816 16.592C41.5307 16.592 42.0693 16.432 42.432 16.112C42.7947 15.792 42.976 15.36 42.976 14.816C42.976 14.3787 42.848 14.032 42.592 13.776C42.336 13.52 41.8827 13.328 41.232 13.2L40.24 13.024C39.152 12.8213 38.336 12.464 37.792 11.952C37.248 11.44 36.976 10.736 36.976 9.84C36.976 9.34933 37.0667 8.90667 37.248 8.512C37.44 8.10667 37.7013 7.77067 38.032 7.504C38.3733 7.22667 38.784 7.01333 39.264 6.864C39.744 6.71467 40.2827 6.64 40.88 6.64C41.7227 6.64 42.4533 6.78933 43.072 7.088C43.6907 7.376 44.2187 7.79733 44.656 8.352L43.392 9.472C43.104 9.09867 42.752 8.8 42.336 8.576C41.92 8.352 41.4027 8.24 40.784 8.24C40.144 8.24 39.648 8.368 39.296 8.624C38.944 8.88 38.768 9.25333 38.768 9.744C38.768 10.2133 38.912 10.5653 39.2 10.8C39.488 11.024 39.936 11.1947 40.544 11.312L41.536 11.52C42.656 11.7333 43.472 12.096 43.984 12.608C44.5067 13.12 44.768 13.824 44.768 14.72C44.768 15.2427 44.6773 15.7173 44.496 16.144C44.3147 16.5707 44.048 16.9387 43.696 17.248C43.3547 17.5467 42.9333 17.7813 42.432 17.952C41.9307 18.112 41.36 18.192 40.72 18.192ZM51.8505 16.624H51.7865C51.7118 16.8267 51.6105 17.024 51.4825 17.216C51.3652 17.408 51.2105 17.5787 51.0185 17.728C50.8372 17.8667 50.6132 17.9787 50.3465 18.064C50.0905 18.1493 49.7918 18.192 49.4505 18.192C48.5865 18.192 47.9145 17.9147 47.4345 17.36C46.9652 16.8053 46.7305 16.0107 46.7305 14.976V9.68H48.4745V14.752C48.4745 16.0427 49.0078 16.688 50.0745 16.688C50.2985 16.688 50.5172 16.6613 50.7305 16.608C50.9438 16.544 51.1305 16.4533 51.2905 16.336C51.4612 16.2187 51.5945 16.0693 51.6905 15.888C51.7972 15.7067 51.8505 15.4933 51.8505 15.248V9.68H53.5945V18H51.8505V16.624ZM62.1878 18C61.7291 18 61.3771 17.872 61.1318 17.616C60.8864 17.3493 60.7371 17.0133 60.6838 16.608H60.6038C60.4438 17.1307 60.1504 17.5253 59.7238 17.792C59.2971 18.0587 58.7798 18.192 58.1718 18.192C57.3078 18.192 56.6411 17.968 56.1718 17.52C55.7131 17.072 55.4838 16.4693 55.4838 15.712C55.4838 14.88 55.7824 14.256 56.3798 13.84C56.9878 13.424 57.8731 13.216 59.0358 13.216H60.5398V12.512C60.5398 12 60.4011 11.6053 60.1238 11.328C59.8464 11.0507 59.4144 10.912 58.8278 10.912C58.3371 10.912 57.9371 11.0187 57.6278 11.232C57.3184 11.4453 57.0571 11.7173 56.8438 12.048L55.8038 11.104C56.0811 10.6347 56.4704 10.2507 56.9718 9.952C57.4731 9.64267 58.1291 9.488 58.9398 9.488C60.0171 9.488 60.8438 9.73867 61.4198 10.24C61.9958 10.7413 62.2838 11.4613 62.2838 12.4V16.576H63.1638V18H62.1878ZM58.6678 16.864C59.2118 16.864 59.6598 16.7467 60.0118 16.512C60.3638 16.2667 60.5398 15.9413 60.5398 15.536V14.336H59.0677C57.8624 14.336 57.2598 14.7093 57.2598 15.456V15.744C57.2598 16.1173 57.3824 16.4 57.6278 16.592C57.8838 16.7733 58.2304 16.864 58.6678 16.864ZM71.8703 18.192C71.2729 18.192 70.7396 18.0907 70.2703 17.888C69.8009 17.6853 69.4063 17.3973 69.0863 17.024C68.7663 16.64 68.5209 16.1813 68.3503 15.648C68.1796 15.104 68.0943 14.5013 68.0943 13.84C68.0943 13.1787 68.1796 12.5813 68.3503 12.048C68.5209 11.504 68.7663 11.0453 69.0863 10.672C69.4063 10.288 69.8009 9.99467 70.2703 9.792C70.7396 9.58933 71.2729 9.488 71.8703 9.488C72.7023 9.488 73.3849 9.67467 73.9183 10.048C74.4516 10.4213 74.8409 10.9173 75.0863 11.536L73.6463 12.208C73.5289 11.824 73.3209 11.52 73.0223 11.296C72.7343 11.0613 72.3503 10.944 71.8703 10.944C71.2303 10.944 70.7449 11.1467 70.4143 11.552C70.0943 11.9467 69.9343 12.464 69.9343 13.104V14.592C69.9343 15.232 70.0943 15.7547 70.4143 16.16C70.7449 16.5547 71.2303 16.752 71.8703 16.752C72.3823 16.752 72.7876 16.6293 73.0863 16.384C73.3956 16.128 73.6409 15.792 73.8223 15.376L75.1503 16.08C74.8729 16.7627 74.4569 17.2853 73.9023 17.648C73.3476 18.0107 72.6703 18.192 71.8703 18.192ZM79.9808 18.192C79.4048 18.192 78.8768 18.0907 78.3968 17.888C77.9274 17.6853 77.5274 17.3973 77.1968 17.024C76.8661 16.64 76.6101 16.1813 76.4288 15.648C76.2474 15.104 76.1568 14.5013 76.1568 13.84C76.1568 13.1787 76.2474 12.5813 76.4288 12.048C76.6101 11.504 76.8661 11.0453 77.1968 10.672C77.5274 10.288 77.9274 9.99467 78.3968 9.792C78.8768 9.58933 79.4048 9.488 79.9808 9.488C80.5568 9.488 81.0794 9.58933 81.5488 9.792C82.0288 9.99467 82.4341 10.288 82.7648 10.672C83.0954 11.0453 83.3514 11.504 83.5328 12.048C83.7141 12.5813 83.8048 13.1787 83.8048 13.84C83.8048 14.5013 83.7141 15.104 83.5328 15.648C83.3514 16.1813 83.0954 16.64 82.7648 17.024C82.4341 17.3973 82.0288 17.6853 81.5488 17.888C81.0794 18.0907 80.5568 18.192 79.9808 18.192ZM79.9808 16.752C80.5781 16.752 81.0581 16.5707 81.4208 16.208C81.7834 15.8347 81.9648 15.28 81.9648 14.544V13.136C81.9648 12.4 81.7834 11.8507 81.4208 11.488C81.0581 11.1147 80.5781 10.928 79.9808 10.928C79.3834 10.928 78.9034 11.1147 78.5408 11.488C78.1781 11.8507 77.9968 12.4 77.9968 13.136V14.544C77.9968 15.28 78.1781 15.8347 78.5408 16.208C78.9034 16.5707 79.3834 16.752 79.9808 16.752ZM85.748 18V9.68H87.492V11.056H87.572C87.7533 10.608 88.0253 10.2347 88.388 9.936C88.7613 9.63733 89.268 9.488 89.908 9.488C90.7613 9.488 91.4227 9.77067 91.892 10.336C92.372 10.8907 92.612 11.6853 92.612 12.72V18H90.868V12.944C90.868 11.6427 90.3453 10.992 89.3 10.992C89.076 10.992 88.852 11.024 88.628 11.088C88.4147 11.1413 88.2227 11.2267 88.052 11.344C87.8813 11.4613 87.7427 11.6107 87.636 11.792C87.54 11.9733 87.492 12.1867 87.492 12.432V18H85.748ZM97.3333 18C96.7253 18 96.2666 17.8453 95.9573 17.536C95.6479 17.216 95.4933 16.768 95.4933 16.192V11.104H94.1973V9.68H94.9013C95.1893 9.68 95.3866 9.616 95.4933 9.488C95.6106 9.36 95.6693 9.152 95.6693 8.864V7.408H97.2373V9.68H98.9813V11.104H97.2373V16.576H98.8533V18H97.3333ZM106.969 18C106.51 18 106.158 17.872 105.913 17.616C105.668 17.3493 105.518 17.0133 105.465 16.608H105.385C105.225 17.1307 104.932 17.5253 104.505 17.792C104.078 18.0587 103.561 18.192 102.953 18.192C102.089 18.192 101.422 17.968 100.953 17.52C100.494 17.072 100.265 16.4693 100.265 15.712C100.265 14.88 100.564 14.256 101.161 13.84C101.769 13.424 102.654 13.216 103.817 13.216H105.321V12.512C105.321 12 105.182 11.6053 104.905 11.328C104.628 11.0507 104.196 10.912 103.609 10.912C103.118 10.912 102.718 11.0187 102.409 11.232C102.1 11.4453 101.838 11.7173 101.625 12.048L100.585 11.104C100.862 10.6347 101.252 10.2507 101.753 9.952C102.254 9.64267 102.91 9.488 103.721 9.488C104.798 9.488 105.625 9.73867 106.201 10.24C106.777 10.7413 107.065 11.4613 107.065 12.4V16.576H107.945V18H106.969ZM103.449 16.864C103.993 16.864 104.441 16.7467 104.793 16.512C105.145 16.2667 105.321 15.9413 105.321 15.536V14.336H103.849C102.644 14.336 102.041 14.7093 102.041 15.456V15.744C102.041 16.1173 102.164 16.4 102.409 16.592C102.665 16.7733 103.012 16.864 103.449 16.864ZM113.868 11.104H112.604V9.68H113.868V8.304C113.868 7.632 114.044 7.10933 114.396 6.736C114.748 6.352 115.276 6.16 115.98 6.16H117.356V7.584H115.612V9.68H117.356V11.104H115.612V18H113.868V11.104ZM122.075 18.192C121.499 18.192 120.971 18.0907 120.491 17.888C120.021 17.6853 119.621 17.3973 119.291 17.024C118.96 16.64 118.704 16.1813 118.523 15.648C118.341 15.104 118.251 14.5013 118.251 13.84C118.251 13.1787 118.341 12.5813 118.523 12.048C118.704 11.504 118.96 11.0453 119.291 10.672C119.621 10.288 120.021 9.99467 120.491 9.792C120.971 9.58933 121.499 9.488 122.075 9.488C122.651 9.488 123.173 9.58933 123.643 9.792C124.123 9.99467 124.528 10.288 124.859 10.672C125.189 11.0453 125.445 11.504 125.627 12.048C125.808 12.5813 125.899 13.1787 125.899 13.84C125.899 14.5013 125.808 15.104 125.627 15.648C125.445 16.1813 125.189 16.64 124.859 17.024C124.528 17.3973 124.123 17.6853 123.643 17.888C123.173 18.0907 122.651 18.192 122.075 18.192ZM122.075 16.752C122.672 16.752 123.152 16.5707 123.515 16.208C123.877 15.8347 124.059 15.28 124.059 14.544V13.136C124.059 12.4 123.877 11.8507 123.515 11.488C123.152 11.1147 122.672 10.928 122.075 10.928C121.477 10.928 120.997 11.1147 120.635 11.488C120.272 11.8507 120.091 12.4 120.091 13.136V14.544C120.091 15.28 120.272 15.8347 120.635 16.208C120.997 16.5707 121.477 16.752 122.075 16.752ZM128.722 8.192C128.359 8.192 128.092 8.10667 127.922 7.936C127.762 7.76533 127.682 7.54667 127.682 7.28V7.008C127.682 6.74133 127.762 6.52267 127.922 6.352C128.092 6.18133 128.359 6.096 128.722 6.096C129.084 6.096 129.346 6.18133 129.506 6.352C129.666 6.52267 129.746 6.74133 129.746 7.008V7.28C129.746 7.54667 129.666 7.76533 129.506 7.936C129.346 8.10667 129.084 8.192 128.722 8.192ZM127.842 9.68H129.586V18H127.842V9.68ZM139.073 18.192C138.476 18.192 137.943 18.0907 137.473 17.888C137.004 17.6853 136.609 17.3973 136.289 17.024C135.969 16.64 135.724 16.1813 135.553 15.648C135.383 15.104 135.297 14.5013 135.297 13.84C135.297 13.1787 135.383 12.5813 135.553 12.048C135.724 11.504 135.969 11.0453 136.289 10.672C136.609 10.288 137.004 9.99467 137.473 9.792C137.943 9.58933 138.476 9.488 139.073 9.488C139.905 9.488 140.588 9.67467 141.121 10.048C141.655 10.4213 142.044 10.9173 142.289 11.536L140.849 12.208C140.732 11.824 140.524 11.52 140.225 11.296C139.937 11.0613 139.553 10.944 139.073 10.944C138.433 10.944 137.948 11.1467 137.617 11.552C137.297 11.9467 137.137 12.464 137.137 13.104V14.592C137.137 15.232 137.297 15.7547 137.617 16.16C137.948 16.5547 138.433 16.752 139.073 16.752C139.585 16.752 139.991 16.6293 140.289 16.384C140.599 16.128 140.844 15.792 141.025 15.376L142.353 16.08C142.076 16.7627 141.66 17.2853 141.105 17.648C140.551 18.0107 139.873 18.192 139.073 18.192ZM144.014 18V9.68H145.758V11.28H145.838C145.955 10.8533 146.2 10.48 146.574 10.16C146.947 9.84 147.464 9.68 148.126 9.68H148.59V11.36H147.902C147.208 11.36 146.675 11.472 146.302 11.696C145.939 11.92 145.758 12.2507 145.758 12.688V18H144.014ZM151.019 8.192C150.656 8.192 150.389 8.10667 150.219 7.936C150.059 7.76533 149.979 7.54667 149.979 7.28V7.008C149.979 6.74133 150.059 6.52267 150.219 6.352C150.389 6.18133 150.656 6.096 151.019 6.096C151.381 6.096 151.643 6.18133 151.803 6.352C151.963 6.52267 152.043 6.74133 152.043 7.008V7.28C152.043 7.54667 151.963 7.76533 151.803 7.936C151.643 8.10667 151.381 8.192 151.019 8.192ZM150.139 9.68H151.883V18H150.139V9.68ZM160.469 18C160.01 18 159.658 17.872 159.413 17.616C159.168 17.3493 159.018 17.0133 158.965 16.608H158.885C158.725 17.1307 158.432 17.5253 158.005 17.792C157.578 18.0587 157.061 18.192 156.453 18.192C155.589 18.192 154.922 17.968 154.453 17.52C153.994 17.072 153.765 16.4693 153.765 15.712C153.765 14.88 154.064 14.256 154.661 13.84C155.269 13.424 156.154 13.216 157.317 13.216H158.821V12.512C158.821 12 158.682 11.6053 158.405 11.328C158.128 11.0507 157.696 10.912 157.109 10.912C156.618 10.912 156.218 11.0187 155.909 11.232C155.6 11.4453 155.338 11.7173 155.125 12.048L154.085 11.104C154.362 10.6347 154.752 10.2507 155.253 9.952C155.754 9.64267 156.41 9.488 157.221 9.488C158.298 9.488 159.125 9.73867 159.701 10.24C160.277 10.7413 160.565 11.4613 160.565 12.4V16.576H161.445V18H160.469ZM156.949 16.864C157.493 16.864 157.941 16.7467 158.293 16.512C158.645 16.2667 158.821 15.9413 158.821 15.536V14.336H157.349C156.144 14.336 155.541 14.7093 155.541 15.456V15.744C155.541 16.1173 155.664 16.4 155.909 16.592C156.165 16.7733 156.512 16.864 156.949 16.864ZM168.386 16.624H168.306C168.125 17.1147 167.826 17.4987 167.41 17.776C167.005 18.0533 166.525 18.192 165.97 18.192C164.914 18.192 164.098 17.8133 163.522 17.056C162.946 16.288 162.658 15.216 162.658 13.84C162.658 12.464 162.946 11.3973 163.522 10.64C164.098 9.872 164.914 9.488 165.97 9.488C166.525 9.488 167.005 9.62667 167.41 9.904C167.826 10.1707 168.125 10.5547 168.306 11.056H168.386V6.16H170.13V18H168.386V16.624ZM166.498 16.688C167.032 16.688 167.48 16.56 167.842 16.304C168.205 16.0373 168.386 15.6907 168.386 15.264V12.416C168.386 11.9893 168.205 11.648 167.842 11.392C167.48 11.1253 167.032 10.992 166.498 10.992C165.89 10.992 165.405 11.1893 165.042 11.584C164.68 11.968 164.498 12.48 164.498 13.12V14.56C164.498 15.2 164.68 15.7173 165.042 16.112C165.405 16.496 165.89 16.688 166.498 16.688ZM178.719 18C178.26 18 177.908 17.872 177.663 17.616C177.418 17.3493 177.268 17.0133 177.215 16.608H177.135C176.975 17.1307 176.682 17.5253 176.255 17.792C175.828 18.0587 175.311 18.192 174.703 18.192C173.839 18.192 173.172 17.968 172.703 17.52C172.244 17.072 172.015 16.4693 172.015 15.712C172.015 14.88 172.314 14.256 172.911 13.84C173.519 13.424 174.404 13.216 175.567 13.216H177.071V12.512C177.071 12 176.932 11.6053 176.655 11.328C176.378 11.0507 175.946 10.912 175.359 10.912C174.868 10.912 174.468 11.0187 174.159 11.232C173.85 11.4453 173.588 11.7173 173.375 12.048L172.335 11.104C172.612 10.6347 173.002 10.2507 173.503 9.952C174.004 9.64267 174.66 9.488 175.471 9.488C176.548 9.488 177.375 9.73867 177.951 10.24C178.527 10.7413 178.815 11.4613 178.815 12.4V16.576H179.695V18H178.719ZM175.199 16.864C175.743 16.864 176.191 16.7467 176.543 16.512C176.895 16.2667 177.071 15.9413 177.071 15.536V14.336H175.599C174.394 14.336 173.791 14.7093 173.791 15.456V15.744C173.791 16.1173 173.914 16.4 174.159 16.592C174.415 16.7733 174.762 16.864 175.199 16.864ZM188.402 18.192C187.804 18.192 187.271 18.0907 186.802 17.888C186.332 17.6853 185.938 17.3973 185.618 17.024C185.298 16.64 185.052 16.1813 184.882 15.648C184.711 15.104 184.626 14.5013 184.626 13.84C184.626 13.1787 184.711 12.5813 184.882 12.048C185.052 11.504 185.298 11.0453 185.618 10.672C185.938 10.288 186.332 9.99467 186.802 9.792C187.271 9.58933 187.804 9.488 188.402 9.488C189.234 9.488 189.916 9.67467 190.45 10.048C190.983 10.4213 191.372 10.9173 191.618 11.536L190.178 12.208C190.06 11.824 189.852 11.52 189.554 11.296C189.266 11.0613 188.882 10.944 188.402 10.944C187.762 10.944 187.276 11.1467 186.946 11.552C186.626 11.9467 186.466 12.464 186.466 13.104V14.592C186.466 15.232 186.626 15.7547 186.946 16.16C187.276 16.5547 187.762 16.752 188.402 16.752C188.914 16.752 189.319 16.6293 189.618 16.384C189.927 16.128 190.172 15.792 190.354 15.376L191.682 16.08C191.404 16.7627 190.988 17.2853 190.434 17.648C189.879 18.0107 189.202 18.192 188.402 18.192ZM196.512 18.192C195.936 18.192 195.408 18.0907 194.928 17.888C194.459 17.6853 194.059 17.3973 193.728 17.024C193.397 16.64 193.141 16.1813 192.96 15.648C192.779 15.104 192.688 14.5013 192.688 13.84C192.688 13.1787 192.779 12.5813 192.96 12.048C193.141 11.504 193.397 11.0453 193.728 10.672C194.059 10.288 194.459 9.99467 194.928 9.792C195.408 9.58933 195.936 9.488 196.512 9.488C197.088 9.488 197.611 9.58933 198.08 9.792C198.56 9.99467 198.965 10.288 199.296 10.672C199.627 11.0453 199.883 11.504 200.064 12.048C200.245 12.5813 200.336 13.1787 200.336 13.84C200.336 14.5013 200.245 15.104 200.064 15.648C199.883 16.1813 199.627 16.64 199.296 17.024C198.965 17.3973 198.56 17.6853 198.08 17.888C197.611 18.0907 197.088 18.192 196.512 18.192ZM196.512 16.752C197.109 16.752 197.589 16.5707 197.952 16.208C198.315 15.8347 198.496 15.28 198.496 14.544V13.136C198.496 12.4 198.315 11.8507 197.952 11.488C197.589 11.1147 197.109 10.928 196.512 10.928C195.915 10.928 195.435 11.1147 195.072 11.488C194.709 11.8507 194.528 12.4 194.528 13.136V14.544C194.528 15.28 194.709 15.8347 195.072 16.208C195.435 16.5707 195.915 16.752 196.512 16.752ZM202.279 18V9.68H204.023V11.056H204.103C204.189 10.8427 204.29 10.64 204.407 10.448C204.535 10.256 204.685 10.0907 204.855 9.952C205.037 9.80267 205.245 9.69067 205.479 9.616C205.725 9.53067 206.007 9.488 206.327 9.488C206.893 9.488 207.394 9.62667 207.831 9.904C208.269 10.1813 208.589 10.608 208.791 11.184H208.839C208.989 10.7147 209.277 10.3147 209.703 9.984C210.13 9.65333 210.679 9.488 211.351 9.488C212.183 9.488 212.829 9.77067 213.287 10.336C213.746 10.8907 213.975 11.6853 213.975 12.72V18H212.231V12.928C212.231 12.288 212.109 11.808 211.863 11.488C211.618 11.1573 211.229 10.992 210.695 10.992C210.471 10.992 210.258 11.024 210.055 11.088C209.853 11.1413 209.671 11.2267 209.511 11.344C209.362 11.4613 209.239 11.6107 209.143 11.792C209.047 11.9733 208.999 12.1813 208.999 12.416V18H207.255V12.928C207.255 11.6373 206.749 10.992 205.735 10.992C205.522 10.992 205.309 11.024 205.095 11.088C204.893 11.1413 204.711 11.2267 204.551 11.344C204.391 11.4613 204.263 11.6107 204.167 11.792C204.071 11.9733 204.023 12.1813 204.023 12.416V18H202.279ZM222.81 18.192C222.021 18.192 221.359 18.0533 220.826 17.776C220.293 17.4987 219.829 17.1147 219.434 16.624L220.554 15.6C220.863 15.9733 221.205 16.2667 221.578 16.48C221.962 16.6827 222.405 16.784 222.906 16.784C223.418 16.784 223.797 16.688 224.042 16.496C224.298 16.2933 224.426 16.016 224.426 15.664C224.426 15.3973 224.335 15.1733 224.154 14.992C223.983 14.8 223.679 14.6773 223.242 14.624L222.474 14.528C221.621 14.4213 220.949 14.176 220.458 13.792C219.978 13.3973 219.738 12.816 219.738 12.048C219.738 11.6427 219.813 11.2853 219.962 10.976C220.111 10.656 220.319 10.3893 220.586 10.176C220.863 9.952 221.189 9.78133 221.562 9.664C221.946 9.54667 222.367 9.488 222.826 9.488C223.573 9.488 224.181 9.60533 224.65 9.84C225.13 10.0747 225.557 10.4 225.93 10.816L224.858 11.84C224.645 11.584 224.362 11.3653 224.01 11.184C223.669 10.992 223.274 10.896 222.826 10.896C222.346 10.896 221.989 10.992 221.754 11.184C221.53 11.376 221.418 11.6267 221.418 11.936C221.418 12.256 221.519 12.496 221.722 12.656C221.925 12.816 222.25 12.9333 222.698 13.008L223.466 13.104C224.383 13.2427 225.05 13.5147 225.466 13.92C225.893 14.3147 226.106 14.848 226.106 15.52C226.106 15.9253 226.026 16.2933 225.866 16.624C225.717 16.944 225.498 17.2213 225.21 17.456C224.922 17.6907 224.575 17.872 224.17 18C223.765 18.128 223.311 18.192 222.81 18.192ZM233.116 16.624H233.052C232.977 16.8267 232.876 17.024 232.748 17.216C232.631 17.408 232.476 17.5787 232.284 17.728C232.103 17.8667 231.879 17.9787 231.612 18.064C231.356 18.1493 231.057 18.192 230.716 18.192C229.852 18.192 229.18 17.9147 228.7 17.36C228.231 16.8053 227.996 16.0107 227.996 14.976V9.68H229.74V14.752C229.74 16.0427 230.273 16.688 231.34 16.688C231.564 16.688 231.783 16.6613 231.996 16.608C232.209 16.544 232.396 16.4533 232.556 16.336C232.727 16.2187 232.86 16.0693 232.956 15.888C233.063 15.7067 233.116 15.4933 233.116 15.248V9.68H234.86V18H233.116V16.624ZM240.573 18.192C239.976 18.192 239.443 18.0907 238.973 17.888C238.504 17.6853 238.109 17.3973 237.789 17.024C237.469 16.64 237.224 16.1813 237.053 15.648C236.883 15.104 236.797 14.5013 236.797 13.84C236.797 13.1787 236.883 12.5813 237.053 12.048C237.224 11.504 237.469 11.0453 237.789 10.672C238.109 10.288 238.504 9.99467 238.973 9.792C239.443 9.58933 239.976 9.488 240.573 9.488C241.405 9.488 242.088 9.67467 242.621 10.048C243.155 10.4213 243.544 10.9173 243.789 11.536L242.349 12.208C242.232 11.824 242.024 11.52 241.725 11.296C241.437 11.0613 241.053 10.944 240.573 10.944C239.933 10.944 239.448 11.1467 239.117 11.552C238.797 11.9467 238.637 12.464 238.637 13.104V14.592C238.637 15.232 238.797 15.7547 239.117 16.16C239.448 16.5547 239.933 16.752 240.573 16.752C241.085 16.752 241.491 16.6293 241.789 16.384C242.099 16.128 242.344 15.792 242.525 15.376L243.853 16.08C243.576 16.7627 243.16 17.2853 242.605 17.648C242.051 18.0107 241.373 18.192 240.573 18.192ZM248.684 18.192C248.087 18.192 247.553 18.0907 247.084 17.888C246.615 17.6853 246.215 17.3973 245.884 17.024C245.553 16.64 245.297 16.1813 245.116 15.648C244.945 15.104 244.86 14.5013 244.86 13.84C244.86 13.1787 244.945 12.5813 245.116 12.048C245.297 11.504 245.553 11.0453 245.884 10.672C246.215 10.288 246.615 9.99467 247.084 9.792C247.553 9.58933 248.087 9.488 248.684 9.488C249.292 9.488 249.825 9.59467 250.284 9.808C250.753 10.0213 251.143 10.32 251.452 10.704C251.761 11.0773 251.991 11.5147 252.14 12.016C252.3 12.5173 252.38 13.056 252.38 13.632V14.288H246.668V14.56C246.668 15.2 246.855 15.728 247.228 16.144C247.612 16.5493 248.156 16.752 248.86 16.752C249.372 16.752 249.804 16.64 250.156 16.416C250.508 16.192 250.807 15.888 251.052 15.504L252.076 16.512C251.767 17.024 251.319 17.4347 250.732 17.744C250.145 18.0427 249.463 18.192 248.684 18.192ZM248.684 10.848C248.385 10.848 248.108 10.9013 247.852 11.008C247.607 11.1147 247.393 11.264 247.212 11.456C247.041 11.648 246.908 11.8773 246.812 12.144C246.716 12.4107 246.668 12.704 246.668 13.024V13.136H250.54V12.976C250.54 12.336 250.375 11.824 250.044 11.44C249.713 11.0453 249.26 10.848 248.684 10.848ZM256.951 18.192C256.161 18.192 255.5 18.0533 254.967 17.776C254.433 17.4987 253.969 17.1147 253.575 16.624L254.695 15.6C255.004 15.9733 255.345 16.2667 255.719 16.48C256.103 16.6827 256.545 16.784 257.047 16.784C257.559 16.784 257.937 16.688 258.183 16.496C258.439 16.2933 258.567 16.016 258.567 15.664C258.567 15.3973 258.476 15.1733 258.295 14.992C258.124 14.8 257.82 14.6773 257.383 14.624L256.615 14.528C255.761 14.4213 255.089 14.176 254.599 13.792C254.119 13.3973 253.879 12.816 253.879 12.048C253.879 11.6427 253.953 11.2853 254.103 10.976C254.252 10.656 254.46 10.3893 254.727 10.176C255.004 9.952 255.329 9.78133 255.703 9.664C256.087 9.54667 256.508 9.488 256.967 9.488C257.713 9.488 258.321 9.60533 258.791 9.84C259.271 10.0747 259.697 10.4 260.071 10.816L258.999 11.84C258.785 11.584 258.503 11.3653 258.151 11.184C257.809 10.992 257.415 10.896 256.967 10.896C256.487 10.896 256.129 10.992 255.895 11.184C255.671 11.376 255.559 11.6267 255.559 11.936C255.559 12.256 255.66 12.496 255.863 12.656C256.065 12.816 256.391 12.9333 256.839 13.008L257.607 13.104C258.524 13.2427 259.191 13.5147 259.607 13.92C260.033 14.3147 260.247 14.848 260.247 15.52C260.247 15.9253 260.167 16.2933 260.007 16.624C259.857 16.944 259.639 17.2213 259.351 17.456C259.063 17.6907 258.716 17.872 258.311 18C257.905 18.128 257.452 18.192 256.951 18.192ZM264.763 18.192C263.974 18.192 263.312 18.0533 262.779 17.776C262.246 17.4987 261.782 17.1147 261.387 16.624L262.507 15.6C262.816 15.9733 263.158 16.2667 263.531 16.48C263.915 16.6827 264.358 16.784 264.859 16.784C265.371 16.784 265.75 16.688 265.995 16.496C266.251 16.2933 266.379 16.016 266.379 15.664C266.379 15.3973 266.288 15.1733 266.107 14.992C265.936 14.8 265.632 14.6773 265.195 14.624L264.427 14.528C263.574 14.4213 262.902 14.176 262.411 13.792C261.931 13.3973 261.691 12.816 261.691 12.048C261.691 11.6427 261.766 11.2853 261.915 10.976C262.064 10.656 262.272 10.3893 262.539 10.176C262.816 9.952 263.142 9.78133 263.515 9.664C263.899 9.54667 264.32 9.488 264.779 9.488C265.526 9.488 266.134 9.60533 266.603 9.84C267.083 10.0747 267.51 10.4 267.883 10.816L266.811 11.84C266.598 11.584 266.315 11.3653 265.963 11.184C265.622 10.992 265.227 10.896 264.779 10.896C264.299 10.896 263.942 10.992 263.707 11.184C263.483 11.376 263.371 11.6267 263.371 11.936C263.371 12.256 263.472 12.496 263.675 12.656C263.878 12.816 264.203 12.9333 264.651 13.008L265.419 13.104C266.336 13.2427 267.003 13.5147 267.419 13.92C267.846 14.3147 268.059 14.848 268.059 15.52C268.059 15.9253 267.979 16.2933 267.819 16.624C267.67 16.944 267.451 17.2213 267.163 17.456C266.875 17.6907 266.528 17.872 266.123 18C265.718 18.128 265.264 18.192 264.763 18.192ZM273.293 18.192C272.717 18.192 272.189 18.0907 271.709 17.888C271.24 17.6853 270.84 17.3973 270.509 17.024C270.179 16.64 269.923 16.1813 269.741 15.648C269.56 15.104 269.469 14.5013 269.469 13.84C269.469 13.1787 269.56 12.5813 269.741 12.048C269.923 11.504 270.179 11.0453 270.509 10.672C270.84 10.288 271.24 9.99467 271.709 9.792C272.189 9.58933 272.717 9.488 273.293 9.488C273.869 9.488 274.392 9.58933 274.861 9.792C275.341 9.99467 275.747 10.288 276.077 10.672C276.408 11.0453 276.664 11.504 276.845 12.048C277.027 12.5813 277.117 13.1787 277.117 13.84C277.117 14.5013 277.027 15.104 276.845 15.648C276.664 16.1813 276.408 16.64 276.077 17.024C275.747 17.3973 275.341 17.6853 274.861 17.888C274.392 18.0907 273.869 18.192 273.293 18.192ZM273.293 16.752C273.891 16.752 274.371 16.5707 274.733 16.208C275.096 15.8347 275.277 15.28 275.277 14.544V13.136C275.277 12.4 275.096 11.8507 274.733 11.488C274.371 11.1147 273.891 10.928 273.293 10.928C272.696 10.928 272.216 11.1147 271.853 11.488C271.491 11.8507 271.309 12.4 271.309 13.136V14.544C271.309 15.28 271.491 15.8347 271.853 16.208C272.216 16.5707 272.696 16.752 273.293 16.752ZM279.797 14.8L279.237 10.016V6.832H281.125V10.016L280.597 14.8H279.797ZM280.197 18.192C279.791 18.192 279.493 18.096 279.301 17.904C279.119 17.7013 279.029 17.4453 279.029 17.136V16.864C279.029 16.5547 279.119 16.304 279.301 16.112C279.493 15.9093 279.791 15.808 280.197 15.808C280.602 15.808 280.895 15.9093 281.077 16.112C281.269 16.304 281.365 16.5547 281.365 16.864V17.136C281.365 17.4453 281.269 17.7013 281.077 17.904C280.895 18.096 280.602 18.192 280.197 18.192Z" fill="#087F5B"/>
</svg>
