<svg width="288" height="24" viewBox="0 0 288 24" fill="none" xmlns="http://www.w3.org/2000/svg">
<rect width="24" height="24" rx="12" fill="#087F5B"/>
<path d="M10.2979 16.3359C10.5029 16.541 10.8516 16.541 11.0566 16.3359L17.0859 10.3066C17.291 10.1016 17.291 9.75293 17.0859 9.54785L16.3477 8.80957C16.1426 8.60449 15.8145 8.60449 15.6094 8.80957L10.6875 13.7314L8.37012 11.4346C8.16504 11.2295 7.83691 11.2295 7.63184 11.4346L6.89355 12.1729C6.68848 12.3779 6.68848 12.7266 6.89355 12.9316L10.2979 16.3359Z" fill="#FCFEFF"/>
<path d="M37.376 18V6.832H42.176C43.2107 6.832 44.0107 7.136 44.576 7.744C45.1413 8.352 45.424 9.168 45.424 10.192C45.424 11.216 45.1413 12.032 44.576 12.64C44.0107 13.248 43.2107 13.552 42.176 13.552H39.184V18H37.376ZM39.184 11.968H42.064C42.5227 11.968 42.88 11.8507 43.136 11.616C43.392 11.3707 43.52 11.024 43.52 10.576V9.808C43.52 9.36 43.392 9.01867 43.136 8.784C42.88 8.53867 42.5227 8.416 42.064 8.416H39.184V11.968ZM50.2308 18.192C49.6548 18.192 49.1268 18.0907 48.6468 17.888C48.1774 17.6853 47.7774 17.3973 47.4468 17.024C47.1161 16.64 46.8601 16.1813 46.6788 15.648C46.4974 15.104 46.4068 14.5013 46.4068 13.84C46.4068 13.1787 46.4974 12.5813 46.6788 12.048C46.8601 11.504 47.1161 11.0453 47.4468 10.672C47.7774 10.288 48.1774 9.99467 48.6468 9.792C49.1268 9.58933 49.6548 9.488 50.2308 9.488C50.8068 9.488 51.3294 9.58933 51.7988 9.792C52.2788 9.99467 52.6841 10.288 53.0148 10.672C53.3454 11.0453 53.6014 11.504 53.7828 12.048C53.9641 12.5813 54.0548 13.1787 54.0548 13.84C54.0548 14.5013 53.9641 15.104 53.7828 15.648C53.6014 16.1813 53.3454 16.64 53.0148 17.024C52.6841 17.3973 52.2788 17.6853 51.7988 17.888C51.3294 18.0907 50.8068 18.192 50.2308 18.192ZM50.2308 16.752C50.8281 16.752 51.3081 16.5707 51.6708 16.208C52.0334 15.8347 52.2148 15.28 52.2148 14.544V13.136C52.2148 12.4 52.0334 11.8507 51.6708 11.488C51.3081 11.1147 50.8281 10.928 50.2308 10.928C49.6334 10.928 49.1534 11.1147 48.7908 11.488C48.4281 11.8507 48.2468 12.4 48.2468 13.136V14.544C48.2468 15.28 48.4281 15.8347 48.7908 16.208C49.1534 16.5707 49.6334 16.752 50.2308 16.752ZM58.638 18.192C57.8487 18.192 57.1873 18.0533 56.654 17.776C56.1207 17.4987 55.6567 17.1147 55.262 16.624L56.382 15.6C56.6913 15.9733 57.0327 16.2667 57.406 16.48C57.79 16.6827 58.2327 16.784 58.734 16.784C59.246 16.784 59.6247 16.688 59.87 16.496C60.126 16.2933 60.254 16.016 60.254 15.664C60.254 15.3973 60.1633 15.1733 59.982 14.992C59.8113 14.8 59.5073 14.6773 59.07 14.624L58.302 14.528C57.4487 14.4213 56.7767 14.176 56.286 13.792C55.806 13.3973 55.566 12.816 55.566 12.048C55.566 11.6427 55.6407 11.2853 55.79 10.976C55.9393 10.656 56.1473 10.3893 56.414 10.176C56.6913 9.952 57.0167 9.78133 57.39 9.664C57.774 9.54667 58.1953 9.488 58.654 9.488C59.4007 9.488 60.0087 9.60533 60.478 9.84C60.958 10.0747 61.3847 10.4 61.758 10.816L60.686 11.84C60.4727 11.584 60.19 11.3653 59.838 11.184C59.4967 10.992 59.102 10.896 58.654 10.896C58.174 10.896 57.8167 10.992 57.582 11.184C57.358 11.376 57.246 11.6267 57.246 11.936C57.246 12.256 57.3473 12.496 57.55 12.656C57.7527 12.816 58.078 12.9333 58.526 13.008L59.294 13.104C60.2113 13.2427 60.878 13.5147 61.294 13.92C61.7207 14.3147 61.934 14.848 61.934 15.52C61.934 15.9253 61.854 16.2933 61.694 16.624C61.5447 16.944 61.326 17.2213 61.038 17.456C60.75 17.6907 60.4033 17.872 59.998 18C59.5927 18.128 59.1393 18.192 58.638 18.192ZM66.0989 18C65.4909 18 65.0322 17.8453 64.7229 17.536C64.4135 17.216 64.2589 16.768 64.2589 16.192V11.104H62.9629V9.68H63.6669C63.9549 9.68 64.1522 9.616 64.2589 9.488C64.3762 9.36 64.4349 9.152 64.4349 8.864V7.408H66.0029V9.68H67.7469V11.104H66.0029V16.576H67.6189V18H66.0989ZM78.6519 16.624H78.5719C78.3905 17.1147 78.0919 17.4987 77.6759 17.776C77.2705 18.0533 76.7905 18.192 76.2359 18.192C75.1799 18.192 74.3639 17.8133 73.7879 17.056C73.2119 16.288 72.9239 15.216 72.9239 13.84C72.9239 12.464 73.2119 11.3973 73.7879 10.64C74.3639 9.872 75.1799 9.488 76.2359 9.488C76.7905 9.488 77.2705 9.62667 77.6759 9.904C78.0919 10.1707 78.3905 10.5547 78.5719 11.056H78.6519V6.16H80.3959V18H78.6519V16.624ZM76.7639 16.688C77.2972 16.688 77.7452 16.56 78.1079 16.304C78.4705 16.0373 78.6519 15.6907 78.6519 15.264V12.416C78.6519 11.9893 78.4705 11.648 78.1079 11.392C77.7452 11.1253 77.2972 10.992 76.7639 10.992C76.1559 10.992 75.6705 11.1893 75.3079 11.584C74.9452 11.968 74.7639 12.48 74.7639 13.12V14.56C74.7639 15.2 74.9452 15.7173 75.3079 16.112C75.6705 16.496 76.1559 16.688 76.7639 16.688ZM86.1526 18.192C85.5553 18.192 85.022 18.0907 84.5526 17.888C84.0833 17.6853 83.6833 17.3973 83.3526 17.024C83.022 16.64 82.766 16.1813 82.5846 15.648C82.414 15.104 82.3286 14.5013 82.3286 13.84C82.3286 13.1787 82.414 12.5813 82.5846 12.048C82.766 11.504 83.022 11.0453 83.3526 10.672C83.6833 10.288 84.0833 9.99467 84.5526 9.792C85.022 9.58933 85.5553 9.488 86.1526 9.488C86.7606 9.488 87.294 9.59467 87.7526 9.808C88.222 10.0213 88.6113 10.32 88.9206 10.704C89.23 11.0773 89.4593 11.5147 89.6086 12.016C89.7686 12.5173 89.8486 13.056 89.8486 13.632V14.288H84.1366V14.56C84.1366 15.2 84.3233 15.728 84.6966 16.144C85.0806 16.5493 85.6246 16.752 86.3286 16.752C86.8406 16.752 87.2726 16.64 87.6246 16.416C87.9766 16.192 88.2753 15.888 88.5206 15.504L89.5446 16.512C89.2353 17.024 88.7873 17.4347 88.2006 17.744C87.614 18.0427 86.9313 18.192 86.1526 18.192ZM86.1526 10.848C85.854 10.848 85.5766 10.9013 85.3206 11.008C85.0753 11.1147 84.862 11.264 84.6806 11.456C84.51 11.648 84.3766 11.8773 84.2806 12.144C84.1846 12.4107 84.1366 12.704 84.1366 13.024V13.136H88.0086V12.976C88.0086 12.336 87.8433 11.824 87.5126 11.44C87.182 11.0453 86.7286 10.848 86.1526 10.848ZM93.5553 18C92.9579 18 92.5099 17.8507 92.2113 17.552C91.9233 17.2427 91.7793 16.816 91.7793 16.272V6.16H93.5233V16.576H94.6753V18H93.5553ZM99.6058 18.192C99.0084 18.192 98.4751 18.0907 98.0058 17.888C97.5364 17.6853 97.1364 17.3973 96.8058 17.024C96.4751 16.64 96.2191 16.1813 96.0378 15.648C95.8671 15.104 95.7818 14.5013 95.7818 13.84C95.7818 13.1787 95.8671 12.5813 96.0378 12.048C96.2191 11.504 96.4751 11.0453 96.8058 10.672C97.1364 10.288 97.5364 9.99467 98.0058 9.792C98.4751 9.58933 99.0084 9.488 99.6058 9.488C100.214 9.488 100.747 9.59467 101.206 9.808C101.675 10.0213 102.064 10.32 102.374 10.704C102.683 11.0773 102.912 11.5147 103.062 12.016C103.222 12.5173 103.302 13.056 103.302 13.632V14.288H97.5898V14.56C97.5898 15.2 97.7764 15.728 98.1498 16.144C98.5338 16.5493 99.0778 16.752 99.7818 16.752C100.294 16.752 100.726 16.64 101.078 16.416C101.43 16.192 101.728 15.888 101.974 15.504L102.998 16.512C102.688 17.024 102.24 17.4347 101.654 17.744C101.067 18.0427 100.384 18.192 99.6058 18.192ZM99.6058 10.848C99.3071 10.848 99.0298 10.9013 98.7738 11.008C98.5284 11.1147 98.3151 11.264 98.1338 11.456C97.9631 11.648 97.8298 11.8773 97.7338 12.144C97.6378 12.4107 97.5898 12.704 97.5898 13.024V13.136H101.462V12.976C101.462 12.336 101.296 11.824 100.966 11.44C100.635 11.0453 100.182 10.848 99.6058 10.848ZM107.536 18C106.928 18 106.47 17.8453 106.16 17.536C105.851 17.216 105.696 16.768 105.696 16.192V11.104H104.4V9.68H105.104C105.392 9.68 105.59 9.616 105.696 9.488C105.814 9.36 105.872 9.152 105.872 8.864V7.408H107.44V9.68H109.184V11.104H107.44V16.576H109.056V18H107.536ZM117.172 18C116.713 18 116.361 17.872 116.116 17.616C115.871 17.3493 115.721 17.0133 115.668 16.608H115.588C115.428 17.1307 115.135 17.5253 114.708 17.792C114.281 18.0587 113.764 18.192 113.156 18.192C112.292 18.192 111.625 17.968 111.156 17.52C110.697 17.072 110.468 16.4693 110.468 15.712C110.468 14.88 110.767 14.256 111.364 13.84C111.972 13.424 112.857 13.216 114.02 13.216H115.524V12.512C115.524 12 115.385 11.6053 115.108 11.328C114.831 11.0507 114.399 10.912 113.812 10.912C113.321 10.912 112.921 11.0187 112.612 11.232C112.303 11.4453 112.041 11.7173 111.828 12.048L110.788 11.104C111.065 10.6347 111.455 10.2507 111.956 9.952C112.457 9.64267 113.113 9.488 113.924 9.488C115.001 9.488 115.828 9.73867 116.404 10.24C116.98 10.7413 117.268 11.4613 117.268 12.4V16.576H118.148V18H117.172ZM113.652 16.864C114.196 16.864 114.644 16.7467 114.996 16.512C115.348 16.2667 115.524 15.9413 115.524 15.536V14.336H114.052C112.847 14.336 112.244 14.7093 112.244 15.456V15.744C112.244 16.1173 112.367 16.4 112.612 16.592C112.868 16.7733 113.215 16.864 113.652 16.864ZM125.089 16.624H125.009C124.828 17.1147 124.529 17.4987 124.113 17.776C123.708 18.0533 123.228 18.192 122.673 18.192C121.617 18.192 120.801 17.8133 120.225 17.056C119.649 16.288 119.361 15.216 119.361 13.84C119.361 12.464 119.649 11.3973 120.225 10.64C120.801 9.872 121.617 9.488 122.673 9.488C123.228 9.488 123.708 9.62667 124.113 9.904C124.529 10.1707 124.828 10.5547 125.009 11.056H125.089V6.16H126.833V18H125.089V16.624ZM123.201 16.688C123.735 16.688 124.183 16.56 124.545 16.304C124.908 16.0373 125.089 15.6907 125.089 15.264V12.416C125.089 11.9893 124.908 11.648 124.545 11.392C124.183 11.1253 123.735 10.992 123.201 10.992C122.593 10.992 122.108 11.1893 121.745 11.584C121.383 11.968 121.201 12.48 121.201 13.12V14.56C121.201 15.2 121.383 15.7173 121.745 16.112C122.108 16.496 122.593 16.688 123.201 16.688ZM132.59 18.192C132.014 18.192 131.486 18.0907 131.006 17.888C130.537 17.6853 130.137 17.3973 129.806 17.024C129.475 16.64 129.219 16.1813 129.038 15.648C128.857 15.104 128.766 14.5013 128.766 13.84C128.766 13.1787 128.857 12.5813 129.038 12.048C129.219 11.504 129.475 11.0453 129.806 10.672C130.137 10.288 130.537 9.99467 131.006 9.792C131.486 9.58933 132.014 9.488 132.59 9.488C133.166 9.488 133.689 9.58933 134.158 9.792C134.638 9.99467 135.043 10.288 135.374 10.672C135.705 11.0453 135.961 11.504 136.142 12.048C136.323 12.5813 136.414 13.1787 136.414 13.84C136.414 14.5013 136.323 15.104 136.142 15.648C135.961 16.1813 135.705 16.64 135.374 17.024C135.043 17.3973 134.638 17.6853 134.158 17.888C133.689 18.0907 133.166 18.192 132.59 18.192ZM132.59 16.752C133.187 16.752 133.667 16.5707 134.03 16.208C134.393 15.8347 134.574 15.28 134.574 14.544V13.136C134.574 12.4 134.393 11.8507 134.03 11.488C133.667 11.1147 133.187 10.928 132.59 10.928C131.993 10.928 131.513 11.1147 131.15 11.488C130.787 11.8507 130.606 12.4 130.606 13.136V14.544C130.606 15.28 130.787 15.8347 131.15 16.208C131.513 16.5707 131.993 16.752 132.59 16.752ZM145.355 18.192C144.757 18.192 144.224 18.0907 143.755 17.888C143.285 17.6853 142.891 17.3973 142.571 17.024C142.251 16.64 142.005 16.1813 141.835 15.648C141.664 15.104 141.579 14.5013 141.579 13.84C141.579 13.1787 141.664 12.5813 141.835 12.048C142.005 11.504 142.251 11.0453 142.571 10.672C142.891 10.288 143.285 9.99467 143.755 9.792C144.224 9.58933 144.757 9.488 145.355 9.488C146.187 9.488 146.869 9.67467 147.403 10.048C147.936 10.4213 148.325 10.9173 148.571 11.536L147.131 12.208C147.013 11.824 146.805 11.52 146.507 11.296C146.219 11.0613 145.835 10.944 145.355 10.944C144.715 10.944 144.229 11.1467 143.899 11.552C143.579 11.9467 143.419 12.464 143.419 13.104V14.592C143.419 15.232 143.579 15.7547 143.899 16.16C144.229 16.5547 144.715 16.752 145.355 16.752C145.867 16.752 146.272 16.6293 146.571 16.384C146.88 16.128 147.125 15.792 147.307 15.376L148.635 16.08C148.357 16.7627 147.941 17.2853 147.387 17.648C146.832 18.0107 146.155 18.192 145.355 18.192ZM153.465 18.192C152.889 18.192 152.361 18.0907 151.881 17.888C151.412 17.6853 151.012 17.3973 150.681 17.024C150.35 16.64 150.094 16.1813 149.913 15.648C149.732 15.104 149.641 14.5013 149.641 13.84C149.641 13.1787 149.732 12.5813 149.913 12.048C150.094 11.504 150.35 11.0453 150.681 10.672C151.012 10.288 151.412 9.99467 151.881 9.792C152.361 9.58933 152.889 9.488 153.465 9.488C154.041 9.488 154.564 9.58933 155.033 9.792C155.513 9.99467 155.918 10.288 156.249 10.672C156.58 11.0453 156.836 11.504 157.017 12.048C157.198 12.5813 157.289 13.1787 157.289 13.84C157.289 14.5013 157.198 15.104 157.017 15.648C156.836 16.1813 156.58 16.64 156.249 17.024C155.918 17.3973 155.513 17.6853 155.033 17.888C154.564 18.0907 154.041 18.192 153.465 18.192ZM153.465 16.752C154.062 16.752 154.542 16.5707 154.905 16.208C155.268 15.8347 155.449 15.28 155.449 14.544V13.136C155.449 12.4 155.268 11.8507 154.905 11.488C154.542 11.1147 154.062 10.928 153.465 10.928C152.868 10.928 152.388 11.1147 152.025 11.488C151.662 11.8507 151.481 12.4 151.481 13.136V14.544C151.481 15.28 151.662 15.8347 152.025 16.208C152.388 16.5707 152.868 16.752 153.465 16.752ZM159.232 18V9.68H160.976V11.056H161.056C161.142 10.8427 161.243 10.64 161.36 10.448C161.488 10.256 161.638 10.0907 161.808 9.952C161.99 9.80267 162.198 9.69067 162.432 9.616C162.678 9.53067 162.96 9.488 163.28 9.488C163.846 9.488 164.347 9.62667 164.784 9.904C165.222 10.1813 165.542 10.608 165.744 11.184H165.792C165.942 10.7147 166.23 10.3147 166.656 9.984C167.083 9.65333 167.632 9.488 168.304 9.488C169.136 9.488 169.782 9.77067 170.24 10.336C170.699 10.8907 170.928 11.6853 170.928 12.72V18H169.184V12.928C169.184 12.288 169.062 11.808 168.816 11.488C168.571 11.1573 168.182 10.992 167.648 10.992C167.424 10.992 167.211 11.024 167.008 11.088C166.806 11.1413 166.624 11.2267 166.464 11.344C166.315 11.4613 166.192 11.6107 166.096 11.792C166 11.9733 165.952 12.1813 165.952 12.416V18H164.208V12.928C164.208 11.6373 163.702 10.992 162.688 10.992C162.475 10.992 162.262 11.024 162.048 11.088C161.846 11.1413 161.664 11.2267 161.504 11.344C161.344 11.4613 161.216 11.6107 161.12 11.792C161.024 11.9733 160.976 12.1813 160.976 12.416V18H159.232ZM179.763 18.192C178.974 18.192 178.312 18.0533 177.779 17.776C177.246 17.4987 176.782 17.1147 176.387 16.624L177.507 15.6C177.816 15.9733 178.158 16.2667 178.531 16.48C178.915 16.6827 179.358 16.784 179.859 16.784C180.371 16.784 180.75 16.688 180.995 16.496C181.251 16.2933 181.379 16.016 181.379 15.664C181.379 15.3973 181.288 15.1733 181.107 14.992C180.936 14.8 180.632 14.6773 180.195 14.624L179.427 14.528C178.574 14.4213 177.902 14.176 177.411 13.792C176.931 13.3973 176.691 12.816 176.691 12.048C176.691 11.6427 176.766 11.2853 176.915 10.976C177.064 10.656 177.272 10.3893 177.539 10.176C177.816 9.952 178.142 9.78133 178.515 9.664C178.899 9.54667 179.32 9.488 179.779 9.488C180.526 9.488 181.134 9.60533 181.603 9.84C182.083 10.0747 182.51 10.4 182.883 10.816L181.811 11.84C181.598 11.584 181.315 11.3653 180.963 11.184C180.622 10.992 180.227 10.896 179.779 10.896C179.299 10.896 178.942 10.992 178.707 11.184C178.483 11.376 178.371 11.6267 178.371 11.936C178.371 12.256 178.472 12.496 178.675 12.656C178.878 12.816 179.203 12.9333 179.651 13.008L180.419 13.104C181.336 13.2427 182.003 13.5147 182.419 13.92C182.846 14.3147 183.059 14.848 183.059 15.52C183.059 15.9253 182.979 16.2933 182.819 16.624C182.67 16.944 182.451 17.2213 182.163 17.456C181.875 17.6907 181.528 17.872 181.123 18C180.718 18.128 180.264 18.192 179.763 18.192ZM190.069 16.624H190.005C189.931 16.8267 189.829 17.024 189.701 17.216C189.584 17.408 189.429 17.5787 189.237 17.728C189.056 17.8667 188.832 17.9787 188.565 18.064C188.309 18.1493 188.011 18.192 187.669 18.192C186.805 18.192 186.133 17.9147 185.653 17.36C185.184 16.8053 184.949 16.0107 184.949 14.976V9.68H186.693V14.752C186.693 16.0427 187.227 16.688 188.293 16.688C188.517 16.688 188.736 16.6613 188.949 16.608C189.163 16.544 189.349 16.4533 189.509 16.336C189.68 16.2187 189.813 16.0693 189.909 15.888C190.016 15.7067 190.069 15.4933 190.069 15.248V9.68H191.813V18H190.069V16.624ZM197.527 18.192C196.929 18.192 196.396 18.0907 195.927 17.888C195.457 17.6853 195.063 17.3973 194.743 17.024C194.423 16.64 194.177 16.1813 194.007 15.648C193.836 15.104 193.751 14.5013 193.751 13.84C193.751 13.1787 193.836 12.5813 194.007 12.048C194.177 11.504 194.423 11.0453 194.743 10.672C195.063 10.288 195.457 9.99467 195.927 9.792C196.396 9.58933 196.929 9.488 197.527 9.488C198.359 9.488 199.041 9.67467 199.575 10.048C200.108 10.4213 200.497 10.9173 200.743 11.536L199.303 12.208C199.185 11.824 198.977 11.52 198.679 11.296C198.391 11.0613 198.007 10.944 197.527 10.944C196.887 10.944 196.401 11.1467 196.071 11.552C195.751 11.9467 195.591 12.464 195.591 13.104V14.592C195.591 15.232 195.751 15.7547 196.071 16.16C196.401 16.5547 196.887 16.752 197.527 16.752C198.039 16.752 198.444 16.6293 198.743 16.384C199.052 16.128 199.297 15.792 199.479 15.376L200.807 16.08C200.529 16.7627 200.113 17.2853 199.559 17.648C199.004 18.0107 198.327 18.192 197.527 18.192ZM205.637 18.192C205.04 18.192 204.506 18.0907 204.037 17.888C203.568 17.6853 203.168 17.3973 202.837 17.024C202.506 16.64 202.25 16.1813 202.069 15.648C201.898 15.104 201.813 14.5013 201.813 13.84C201.813 13.1787 201.898 12.5813 202.069 12.048C202.25 11.504 202.506 11.0453 202.837 10.672C203.168 10.288 203.568 9.99467 204.037 9.792C204.506 9.58933 205.04 9.488 205.637 9.488C206.245 9.488 206.778 9.59467 207.237 9.808C207.706 10.0213 208.096 10.32 208.405 10.704C208.714 11.0773 208.944 11.5147 209.093 12.016C209.253 12.5173 209.333 13.056 209.333 13.632V14.288H203.621V14.56C203.621 15.2 203.808 15.728 204.181 16.144C204.565 16.5493 205.109 16.752 205.813 16.752C206.325 16.752 206.757 16.64 207.109 16.416C207.461 16.192 207.76 15.888 208.005 15.504L209.029 16.512C208.72 17.024 208.272 17.4347 207.685 17.744C207.098 18.0427 206.416 18.192 205.637 18.192ZM205.637 10.848C205.338 10.848 205.061 10.9013 204.805 11.008C204.56 11.1147 204.346 11.264 204.165 11.456C203.994 11.648 203.861 11.8773 203.765 12.144C203.669 12.4107 203.621 12.704 203.621 13.024V13.136H207.493V12.976C207.493 12.336 207.328 11.824 206.997 11.44C206.666 11.0453 206.213 10.848 205.637 10.848ZM213.904 18.192C213.114 18.192 212.453 18.0533 211.92 17.776C211.386 17.4987 210.922 17.1147 210.528 16.624L211.648 15.6C211.957 15.9733 212.298 16.2667 212.672 16.48C213.056 16.6827 213.498 16.784 214 16.784C214.512 16.784 214.89 16.688 215.136 16.496C215.392 16.2933 215.52 16.016 215.52 15.664C215.52 15.3973 215.429 15.1733 215.248 14.992C215.077 14.8 214.773 14.6773 214.336 14.624L213.568 14.528C212.714 14.4213 212.042 14.176 211.552 13.792C211.072 13.3973 210.832 12.816 210.832 12.048C210.832 11.6427 210.906 11.2853 211.056 10.976C211.205 10.656 211.413 10.3893 211.68 10.176C211.957 9.952 212.282 9.78133 212.656 9.664C213.04 9.54667 213.461 9.488 213.92 9.488C214.666 9.488 215.274 9.60533 215.744 9.84C216.224 10.0747 216.65 10.4 217.024 10.816L215.952 11.84C215.738 11.584 215.456 11.3653 215.104 11.184C214.762 10.992 214.368 10.896 213.92 10.896C213.44 10.896 213.082 10.992 212.848 11.184C212.624 11.376 212.512 11.6267 212.512 11.936C212.512 12.256 212.613 12.496 212.816 12.656C213.018 12.816 213.344 12.9333 213.792 13.008L214.56 13.104C215.477 13.2427 216.144 13.5147 216.56 13.92C216.986 14.3147 217.2 14.848 217.2 15.52C217.2 15.9253 217.12 16.2933 216.96 16.624C216.81 16.944 216.592 17.2213 216.304 17.456C216.016 17.6907 215.669 17.872 215.264 18C214.858 18.128 214.405 18.192 213.904 18.192ZM221.716 18.192C220.927 18.192 220.265 18.0533 219.732 17.776C219.199 17.4987 218.735 17.1147 218.34 16.624L219.46 15.6C219.769 15.9733 220.111 16.2667 220.484 16.48C220.868 16.6827 221.311 16.784 221.812 16.784C222.324 16.784 222.703 16.688 222.948 16.496C223.204 16.2933 223.332 16.016 223.332 15.664C223.332 15.3973 223.241 15.1733 223.06 14.992C222.889 14.8 222.585 14.6773 222.148 14.624L221.38 14.528C220.527 14.4213 219.855 14.176 219.364 13.792C218.884 13.3973 218.644 12.816 218.644 12.048C218.644 11.6427 218.719 11.2853 218.868 10.976C219.017 10.656 219.225 10.3893 219.492 10.176C219.769 9.952 220.095 9.78133 220.468 9.664C220.852 9.54667 221.273 9.488 221.732 9.488C222.479 9.488 223.087 9.60533 223.556 9.84C224.036 10.0747 224.463 10.4 224.836 10.816L223.764 11.84C223.551 11.584 223.268 11.3653 222.916 11.184C222.575 10.992 222.18 10.896 221.732 10.896C221.252 10.896 220.895 10.992 220.66 11.184C220.436 11.376 220.324 11.6267 220.324 11.936C220.324 12.256 220.425 12.496 220.628 12.656C220.831 12.816 221.156 12.9333 221.604 13.008L222.372 13.104C223.289 13.2427 223.956 13.5147 224.372 13.92C224.799 14.3147 225.012 14.848 225.012 15.52C225.012 15.9253 224.932 16.2933 224.772 16.624C224.623 16.944 224.404 17.2213 224.116 17.456C223.828 17.6907 223.481 17.872 223.076 18C222.671 18.128 222.217 18.192 221.716 18.192ZM230.246 18.192C229.67 18.192 229.142 18.0907 228.662 17.888C228.193 17.6853 227.793 17.3973 227.462 17.024C227.132 16.64 226.876 16.1813 226.694 15.648C226.513 15.104 226.422 14.5013 226.422 13.84C226.422 13.1787 226.513 12.5813 226.694 12.048C226.876 11.504 227.132 11.0453 227.462 10.672C227.793 10.288 228.193 9.99467 228.662 9.792C229.142 9.58933 229.67 9.488 230.246 9.488C230.822 9.488 231.345 9.58933 231.814 9.792C232.294 9.99467 232.7 10.288 233.03 10.672C233.361 11.0453 233.617 11.504 233.798 12.048C233.98 12.5813 234.07 13.1787 234.07 13.84C234.07 14.5013 233.98 15.104 233.798 15.648C233.617 16.1813 233.361 16.64 233.03 17.024C232.7 17.3973 232.294 17.6853 231.814 17.888C231.345 18.0907 230.822 18.192 230.246 18.192ZM230.246 16.752C230.844 16.752 231.324 16.5707 231.686 16.208C232.049 15.8347 232.23 15.28 232.23 14.544V13.136C232.23 12.4 232.049 11.8507 231.686 11.488C231.324 11.1147 230.844 10.928 230.246 10.928C229.649 10.928 229.169 11.1147 228.806 11.488C228.444 11.8507 228.262 12.4 228.262 13.136V14.544C228.262 15.28 228.444 15.8347 228.806 16.208C229.169 16.5707 229.649 16.752 230.246 16.752ZM236.75 14.8L236.19 10.016V6.832H238.078V10.016L237.55 14.8H236.75ZM237.15 18.192C236.744 18.192 236.446 18.096 236.254 17.904C236.072 17.7013 235.982 17.4453 235.982 17.136V16.864C235.982 16.5547 236.072 16.304 236.254 16.112C236.446 15.9093 236.744 15.808 237.15 15.808C237.555 15.808 237.848 15.9093 238.03 16.112C238.222 16.304 238.318 16.5547 238.318 16.864V17.136C238.318 17.4453 238.222 17.7013 238.03 17.904C237.848 18.096 237.555 18.192 237.15 18.192Z" fill="#087F5B"/>
</svg>
